<?xml version="1.0" encoding="utf-8"?>
<!-- Generator: Adobe Illustrator 22.1.0, SVG Export Plug-In . SVG Version: 6.00 Build 0)  -->
<svg version="1.1" id="Layer_1" xmlns="http://www.w3.org/2000/svg" xmlns:xlink="http://www.w3.org/1999/xlink" x="0px" y="0px"
	 viewBox="0 0 144 144" style="enable-background:new 0 0 144 144;" xml:space="preserve">
<style type="text/css">
	.st0{fill:#3DFF47;}
	.st1{fill:#636363;}
</style>
<g>
	<path class="st0" d="M110.3,56.2c0,19.2-15.8,44.4-34.5,53.8c-2.5,1.2-4.4,1.4-7.1-0.1C52.4,101.3,34,75.1,34,56.2
		c0-20.8,17.1-37.6,38.1-37.6S110.3,35.4,110.3,56.2z"/>
	<path d="M72.2,112.8c-1.4,0-2.8-0.4-4.4-1.2c-4.1-2.2-8.4-5.5-12.7-9.7c-4.1-4-8-8.9-11.4-13.9c-3.5-5.2-6.3-10.7-8.3-15.9
		c-2.1-5.7-3.2-11-3.2-15.8c0-5.3,1.1-10.5,3.1-15.4c2-4.7,4.9-8.9,8.6-12.5c3.7-3.6,7.9-6.4,12.7-8.4c4.9-2,10.1-3.1,15.5-3.1
		c5.4,0,10.6,1,15.5,3.1c4.7,2,9,4.8,12.7,8.4c3.7,3.6,6.6,7.8,8.6,12.5c2.1,4.9,3.1,10,3.1,15.4c0,4.9-1,10.2-2.9,15.8
		c-1.8,5.3-4.4,10.7-7.7,15.8c-3.3,5.2-7.1,9.8-11.3,13.9c-4.4,4.3-9,7.6-13.7,10C75,112.4,73.6,112.8,72.2,112.8z M72.2,20.4
		c-20,0-36.3,16-36.3,35.8c0,8.4,4,19.3,10.9,29.7c6.6,10,15.1,18.4,22.7,22.4c2,1.1,3.4,1.1,5.5,0c17.9-9,33.5-33.4,33.5-52.2
		C108.5,36.5,92.2,20.4,72.2,20.4z"/>
</g>
<g>
	<g>
		<g>
			<g>
				<g>
					<g>
						<g>
							<path d="M105.6,57.2c0,0-3.9,23.8-18.1,26.3C73.3,86,74.3,70.4,81.7,65.2S105.6,57.2,105.6,57.2z"/>
						</g>
					</g>
				</g>
			</g>
		</g>
		<g>
			<path class="st1" d="M84,82.4c0.3,0,0.6-0.1,0.9-0.1c0.3-0.1,0.6-0.1,0.9-0.2c0.6-0.2,1.2-0.4,1.7-0.6c0.6-0.2,1.1-0.5,1.7-0.8
				c0.5-0.3,1.1-0.6,1.6-1c1-0.7,1.9-1.5,2.8-2.4c0.1-0.1,0.2-0.2,0.3-0.3l0.2-0.2l0.1-0.1l0.1-0.1l0.3-0.4c0.1-0.1,0.1-0.1,0.2-0.2
				l0.1-0.2l0.3-0.4c0.1-0.1,0.2-0.2,0.3-0.4l0.3-0.4l0.3-0.4l0.5-0.8l0.1-0.2c0-0.1,0.1-0.1,0.1-0.2l0.3-0.4l0.5-0.8l0.5-0.8
				l0.2-0.4c0-0.1,0.1-0.1,0.1-0.2l0.1-0.2l0.5-0.8c0.1-0.1,0.2-0.3,0.2-0.4l0.2-0.4l0.2-0.4c0.1-0.1,0.1-0.3,0.2-0.4l0.4-0.8
				l0.4-0.9c0.1-0.1,0.1-0.3,0.2-0.4l0.2-0.4c0.1-0.3,0.3-0.6,0.4-0.9c0.5-1.2,0.9-2.4,1.3-3.6c-0.2,1.3-0.6,2.5-1,3.7
				c-0.1,0.3-0.2,0.6-0.3,0.9l-0.2,0.4c-0.1,0.2-0.1,0.3-0.2,0.4l-0.4,0.9c-0.1,0.3-0.3,0.6-0.4,0.9c-0.1,0.1-0.1,0.3-0.2,0.4
				l-0.2,0.4l-0.2,0.4c-0.1,0.1-0.1,0.3-0.2,0.4l-0.5,0.8l-0.1,0.2c0,0.1-0.1,0.1-0.1,0.2l-0.2,0.4l-0.5,0.8l-0.5,0.8l-0.3,0.4
				c0,0.1-0.1,0.1-0.1,0.2l-0.1,0.2l-0.6,0.8l-0.3,0.4l-0.3,0.4c-0.1,0.1-0.2,0.3-0.3,0.4l-0.3,0.4l-0.2,0.2
				c-0.1,0.1-0.1,0.1-0.2,0.2l-0.3,0.4l-0.1,0.1l-0.1,0.1l-0.2,0.2c-0.1,0.1-0.2,0.2-0.3,0.3l-0.3,0.3c-0.1,0.1-0.1,0.1-0.2,0.2
				l-0.2,0.2c-0.1,0.1-0.2,0.2-0.4,0.3l-0.4,0.3c-0.1,0-0.1,0.1-0.2,0.2l-0.2,0.1c-0.1,0.1-0.3,0.2-0.4,0.3L91.6,80
				c-0.1,0.1-0.3,0.2-0.4,0.3L91,80.4l-0.2,0.1l-0.2,0.1l-0.1,0.1l-0.1,0.1l-0.4,0.2l-0.4,0.2c-0.6,0.3-1.2,0.5-1.8,0.7
				c-0.6,0.2-1.2,0.4-1.8,0.5C85.3,82.4,84.6,82.5,84,82.4z"/>
		</g>
		<g>
			<path d="M76.2,67.3C76.2,67.3,76.2,67.2,76.2,67.3l0-0.2c0,0,0-0.1,0-0.1c0-0.1,0-0.2,0-0.3c0-0.2,0-0.4,0.1-0.6
				c0.1-0.4,0.2-0.7,0.4-1c0.3-0.7,0.8-1.2,1.3-1.7c0.5-0.5,1.1-0.9,1.7-1.3l0.2-0.1c0.1,0,0.2-0.1,0.2-0.1l0.2-0.1l0.2-0.1
				c0.3-0.2,0.6-0.3,0.9-0.5c1.2-0.6,2.5-1.2,3.8-1.7c0.6-0.3,1.3-0.5,2-0.7c0.7-0.2,1.3-0.4,2-0.6c-0.7,0.2-1.3,0.4-2,0.7
				c-0.7,0.2-1.3,0.5-1.9,0.8c-1.3,0.5-2.5,1.1-3.8,1.8c-0.3,0.2-0.6,0.3-0.9,0.5l-0.2,0.1L80.2,62c-0.1,0-0.1,0.1-0.2,0.1l-0.2,0.1
				c-0.6,0.4-1.1,0.8-1.6,1.3c-0.5,0.5-0.9,1.1-1.2,1.7c-0.1,0.3-0.3,0.6-0.3,1c0,0.2-0.1,0.3-0.1,0.5c0,0.1,0,0.2,0,0.2
				c0,0,0,0.1,0,0.1l0,0.1c0,0,0,0,0,0.1L76.2,67.3z"/>
		</g>
	</g>
	<g>
		<g>
			<g>
				<g>
					<g>
						<g>
							<path d="M38.7,57.2c0,0,3.9,23.8,18.1,26.3C71,86,70,70.4,62.6,65.2S38.7,57.2,38.7,57.2z"/>
						</g>
					</g>
				</g>
			</g>
		</g>
		<g>
			<path class="st1" d="M60.3,82.4c-0.6,0-1.2,0-1.9-0.1c-0.6-0.1-1.2-0.3-1.8-0.5c-0.6-0.2-1.2-0.4-1.8-0.7l-0.4-0.2L54,80.7
				l-0.1-0.1l-0.1-0.1l-0.2-0.1l-0.2-0.1l-0.2-0.1C53,80.1,52.9,80,52.8,80l-0.4-0.3c-0.1-0.1-0.3-0.2-0.4-0.3l-0.2-0.1
				c-0.1,0-0.1-0.1-0.2-0.2l-0.4-0.3c-0.1-0.1-0.2-0.2-0.4-0.3l-0.2-0.2c-0.1-0.1-0.1-0.1-0.2-0.2l-0.3-0.3
				c-0.1-0.1-0.2-0.2-0.3-0.3l-0.2-0.2l-0.1-0.1l-0.1-0.1l-0.3-0.4c-0.1-0.1-0.1-0.1-0.2-0.2l-0.2-0.2L48.6,76
				c-0.1-0.1-0.2-0.3-0.3-0.4L48,75.3l-0.3-0.4l-0.6-0.8L47,73.9c0-0.1-0.1-0.1-0.1-0.2l-0.3-0.4l-0.5-0.8l-0.5-0.8l-0.2-0.4
				c0-0.1-0.1-0.1-0.1-0.2l-0.1-0.2L44.7,70c-0.1-0.1-0.1-0.3-0.2-0.4l-0.2-0.4l-0.2-0.4c-0.1-0.1-0.1-0.3-0.2-0.4
				c-0.1-0.3-0.3-0.6-0.4-0.9l-0.4-0.9c-0.1-0.1-0.1-0.3-0.2-0.4l-0.2-0.4c-0.1-0.3-0.2-0.6-0.3-0.9c-0.4-1.2-0.8-2.5-1-3.7
				c0.4,1.2,0.8,2.4,1.3,3.6c0.1,0.3,0.2,0.6,0.4,0.9l0.2,0.4c0.1,0.1,0.1,0.3,0.2,0.4l0.4,0.9l0.4,0.8c0.1,0.1,0.1,0.3,0.2,0.4
				l0.2,0.4l0.2,0.4c0.1,0.1,0.1,0.3,0.2,0.4l0.5,0.8l0.1,0.2c0,0.1,0.1,0.1,0.1,0.2l0.2,0.4l0.5,0.8l0.5,0.8l0.3,0.4
				c0,0.1,0.1,0.1,0.1,0.2l0.1,0.2l0.5,0.8l0.3,0.4l0.3,0.4c0.1,0.1,0.2,0.2,0.3,0.4l0.3,0.4l0.1,0.2c0,0.1,0.1,0.1,0.2,0.2l0.3,0.4
				l0.1,0.1l0.1,0.1l0.2,0.2c0.1,0.1,0.2,0.2,0.3,0.3c0.9,0.9,1.8,1.7,2.8,2.4c0.5,0.4,1,0.7,1.6,1c0.5,0.3,1.1,0.6,1.7,0.8
				c0.6,0.2,1.1,0.4,1.7,0.6c0.3,0.1,0.6,0.2,0.9,0.2C59.7,82.4,60,82.4,60.3,82.4z"/>
		</g>
		<g>
			<path d="M67.8,67.2C67.8,67.2,67.8,67.2,67.8,67.2l0-0.1c0,0,0-0.1,0-0.1c0-0.1,0-0.2,0-0.2c0-0.2,0-0.3-0.1-0.5
				c-0.1-0.3-0.2-0.7-0.3-1c-0.3-0.6-0.7-1.2-1.2-1.7c-0.5-0.5-1-0.9-1.6-1.3l-0.2-0.1c-0.1,0-0.1-0.1-0.2-0.1l-0.2-0.1l-0.2-0.1
				c-0.3-0.2-0.6-0.4-0.9-0.5c-1.2-0.7-2.5-1.3-3.8-1.8c-0.6-0.3-1.3-0.5-1.9-0.8c-0.7-0.2-1.3-0.5-2-0.7c0.7,0.2,1.3,0.4,2,0.6
				c0.7,0.2,1.3,0.5,2,0.7c1.3,0.5,2.6,1.1,3.8,1.7c0.3,0.2,0.6,0.3,0.9,0.5l0.2,0.1l0.2,0.1c0.1,0,0.2,0.1,0.2,0.1l0.2,0.1
				c0.6,0.4,1.2,0.8,1.7,1.3c0.5,0.5,1,1.1,1.3,1.7c0.2,0.3,0.3,0.7,0.4,1c0,0.2,0.1,0.4,0.1,0.6c0,0.1,0,0.2,0,0.3c0,0,0,0.1,0,0.1
				l0,0.1c0,0,0,0,0,0.1L67.8,67.2z"/>
		</g>
	</g>
</g>
</svg>
